<svg xmlns="http://www.w3.org/2000/svg" width="48" height="48" viewBox="0 0 48 48"><path d="M24 6.74c-6.58 0-18.13 34.52 0 34.52s6.58-34.52 0-34.52zm-1.61 7.75A85.46 85.46 0 0021 23.21c-.54 4.88-.95 10.17.37 15a.29.29 0 01-.56.15c-1.33-4.85-.94-10.18-.4-15.12a89.09 89.09 0 011.4-8.88c.09-.36.65-.24.58.13zm0-4.82c-.36.66-.68 1.33-1 2-3.53 7.63-6 17.11-2.86 25.26.13.35-.43.5-.56.16a22.69 22.69 0 01-1.42-8.2 40.16 40.16 0 012.65-13.46 43.33 43.33 0 012.65-6 .29.29 0 01.51.24zm1.93 29.27a.29.29 0 01-.58 0V9.53a.29.29 0 01.58 0zm2.79-.61a.29.29 0 01-.56-.15c1.32-4.8.91-10.09.37-15a85.46 85.46 0 00-1.37-8.72c-.08-.37.48-.52.56-.16a89.06 89.06 0 011.39 8.88c.5 4.97.91 10.3-.42 15.15zM30 37.1c-.14.34-.7.19-.56-.16a22.38 22.38 0 001.39-8.31 40 40 0 00-2.68-13.14 41.79 41.79 0 00-2.56-5.82c-.18-.32.32-.62.5-.29.38.69.72 1.41 1.05 2.13 3.5 7.74 5.98 17.33 2.86 25.59z" fill="#fff" opacity=".6"/></svg>