<svg xmlns="http://www.w3.org/2000/svg" width="48" height="48" viewBox="0 0 48 48"><g opacity=".6" fill="#fff"><path d="M16 27.22s-6 2.78-5.39 4.13 1.12 6.8 5.77 6.8 9.47-.6 9-1.46-6.94-9.3-9.38-9.47zM20.79 29.09s7.47-8.5 9.53-8.15 6.54 8.19 6.54 8.19-.51 2.87-1.46 3.17-7.49 5-8.69 4.13-5.92-7.34-5.92-7.34zM39.62 34.19c6.11-3.44 4.13-13.68 4.13-13.68s-1-.52-1.55 1S36.86 32 36.86 32s1.21 2.28 2.76 2.19zM25.07 38.75s9.11-3.82 11.26-5.63c0 0 4.13 2.88-2.74 6.84-5.81 3.35-8.52-1.21-8.52-1.21zM16.55 39.27s-2.46 4.49-2 5.53 4.13 3.37 6.89 2.51 3.32-7.09 3.32-7.09a1.51 1.51 0 00-1.81-1.55c-1.84.26-6.4.6-6.4.6zM6.65 30.15a7.77 7.77 0 013.1 3 13.14 13.14 0 003.35 4.72s-6.04-.4-6.45-7.72zM30.91 19.86s2.13-7.48 2.66-7.33 1.9.45 2.29 0a1.67 1.67 0 011-.53S41 20.82 41 21.58s-2.22 6.06-3.39 6.4c-1.3-2.21-5.45-8.35-6.7-8.12z"/><path d="M9.51 19.16s5-5.91 5.72-5.91 1.7-.1 1.94.53 4.51 12.51 4.51 12.51l-2 2s-2.47-2.57-3.44-2.47-4.75 3.22-5.39 2.87-1.85-8.9-1.34-9.53zM18.38 14.12s4.12-5 4.67-4.87a5.78 5.78 0 003.23.17c1.9-.34 4 8.8 4 8.8s-6.58 7.05-7.34 7-4.56-11.1-4.56-11.1zM15.81 4.76s-2.91-.39-4.07 1-4.42 9.36-4.22 9.84.77 3.11 1.06 3 3.88-3.49 3.93-3.93 1.36-8.21 3.3-9.91zM7 15.28s-2.28.88-2.62 2.57S3.1 27 5.63 28.76a30.88 30.88 0 003.74 2.33s1.13-1.13.79-1.71S6.65 18.34 7 15.28zM41.67 20.83s-1.39-7.9-1.68-8.19.31-2.16 1-2.11A3 3 0 0143 12.37c.3.93.68 7.33.68 7.33s-1.68-.03-2.01 1.13zM20.79 3.94s-4.88 1.79-5.71 4.94-1.29 3.43-1.1 3.83 1-1.49 2.16-1.06A3.06 3.06 0 0117.77 13s3.42-3 3.47-3.77 1.7-4.22 1-4.31-1.6.62-1.45-.98z"/><path d="M26 8.37s.33-3.07 1.16-3.07 1.23.48 2.05 0a3.58 3.58 0 011.86-.63c.39.1 2.7 6.46 2.41 6.94s-1.5.35-2.55 4.6c-.67.04-1.29-9.48-4.93-7.84zM33.17 6.53s.62 5.25 1.37 5.12 1.74-1.62 2.32-1.12 2.46 4.57 2.46 4.57-.79-7.36-2-9a6 6 0 00-3.79-1.85s1.68 1.12-.36 2.28zM22.05 3.8s1.07-1.55 2.19-1.21a6.6 6.6 0 012.33 1.68 3.45 3.45 0 00-1.46 2.34c-.29 1.67-.11 2.48-.57 2.18s-1.16-1.16-1.75-1 2.66-4.92-.74-3.99zM24.07 1s-2.83-.3-5.69 3.27c0 0 2.52-1.31 3.3-1.73S24.07 1 24.07 1z"/><path d="M24.24 1.75A5.12 5.12 0 0126.64.5 10.07 10.07 0 0131 2.24c.79.71 2.5 2.5 1.91 3.12s-1.15-2.08-2.25-2-1.07 1.36-2.36 1-3.05-2.95-4.06-2.61z"/></g></svg>