<svg xmlns="http://www.w3.org/2000/svg" width="48" height="48" viewBox="0 0 48 48"><g opacity=".6" fill="#fff"><path d="M13.24 14.19C13.19 16 13 21.27 12.78 27h2.63c-.18-5.65-.33-10.81-.39-12.74a27.7 27.7 0 00.87-3.26c.51 1.78.81 3.53.81 3.53-.08 1.82-.31 6.89-.48 12.49h2.62c-.18-5.44-.34-10.46-.39-12.41s.41-1.24.72-2.66c.31 1.31.67 2.4.67 2.4-.05 1.92-.21 7-.38 12.67h2.62c-.18-5.7-.41-10.9-.49-12.74s.22-1.3.61-2.8c.43 1.6.68 3.06.68 3.06-.07 1.82-.3 6.89-.47 12.49h2.62c-.18-5.44-.34-10.46-.39-12.41a29.13 29.13 0 00.78-2.89c.39 1.5.61 2.81.61 2.81-.07 1.82-.3 6.89-.47 12.49h2.62c-.18-5.44-.34-10.46-.39-12.41a26.79 26.79 0 00.81-3.05c.42 1.57.66 3 .66 3-.07 1.82-.3 6.89-.47 12.49h2.62c-.18-5.44-.34-10.46-.39-12.41a26.61 26.61 0 00.9-3.53A27.23 27.23 0 0033 14.33c-.06 1.92-.21 7-.38 12.67h2.61c-.17-5.7-.4-10.9-.48-12.74a34.8 34.8 0 011-4.24c.64-2 2.37-2.38 1.54-3.85A60.25 60.25 0 0135 .58S34.3.26 33.15 3a14.81 14.81 0 00-1.09 3.5C31.73 3.91 31 .82 29.81.82c-.73 0-1.22 1.36-1.48 3.07-.4-1.69-1-3.07-1.78-3.07s-1.17 1.26-1.44 2.87c-.4-1.59-1-2.87-1.74-2.87-.4 0-.73.42-1 1.07-.31-.76-.51-1.31-.51-1.31S21.24.26 20.08 3a17.93 17.93 0 00-.89 2.55C18.82 3.17 18.14.82 17.1.82c-.85 0-1.36 1.78-1.58 3.83a18.52 18.52 0 00-.67-1.76C13.7.19 13.05.51 13.05.51a59.09 59.09 0 01-2.37 5.58c-.83 1.48.9 1.86 1.54 3.85a35.2 35.2 0 011.02 4.25zM32.45 31.68c-.13 4.54-.27 8.93-.35 11.78-.07-2.52-.21-7-.37-11.78h-2.89c-.08 3.49-.11 6.89-.06 9.6-.08-2.56-.19-6-.3-9.6h-2.9c0 2.21-.08 4.38-.08 6.37-.06-1.95-.13-4.13-.2-6.37h-2.9c0 1.33 0 2.64-.07 3.91 0-1.27 0-2.58-.06-3.91h-2.88c-.07 2.06-.13 4.09-.18 6-.06-1.83-.13-3.87-.19-6h-2.89C16 39.33 16 46.6 16.7 47a1.86 1.86 0 002.26-.2c0 1.24 1.24.69 2.73-.06.4-.2.59-2.54.64-5.9.05 3.49.24 6 .65 6.16a1.73 1.73 0 002.73-1.46v-.31c.1 1 .25 1.67.45 1.77a1.73 1.73 0 002.74-1.5c0-.19 0-1-.06-2.2.09 2.12.27 3.51.58 3.66a1.73 1.73 0 002.61-.8v.54c0 1.33 1.22.76 2.74 0 .71-.35.74-7.47.58-15zM12.66 31.68c-.16 7.53-.13 14.61.58 15 1.52.76 2.74 1.33 2.74 0 0-.61-.21-7.57-.43-15z"/></g></svg>