<svg xmlns="http://www.w3.org/2000/svg" width="48" height="48" viewBox="0 0 48 48"><g opacity=".6" fill="#fff"><path d="M42.9 31.79c-12 12.36-25.56-4.41-27.91-7.43-1.78-2.29-8.49-.1-13.41-4.36a24.07 24.07 0 00-.06 2.84c.21 5.61 9.75 2.4 12.1 5.43s16.93 18.91 29.24 8.3c3.3-2.84 3.64-7.14 3.64-10.32a17.26 17.26 0 01-3.6 5.54z"/><path d="M24.09 8C11.44 9.44 1.36 10.8 1.58 16.62c.22 5.61 11.76 2.9 14.11 5.93s15.45 20 26.77 6.94S36.74 6.53 24.09 8zm15.68 18.61c-8.75 9.6-20.17-4.6-22-6.82S7.12 19.8 7 15.69c-.17-4.27 7-3.56 16.83-4.63S48.52 17 39.77 26.61z"/><circle cx="34.12" cy="22.9" r="2.92"/></g></svg>