<svg xmlns="http://www.w3.org/2000/svg" width="48" height="48" viewBox="0 0 48 48"><g opacity=".6" fill="#fff"><path d="M24.64 32.54c-.86 0-1-5.67-4.68-7.34a51.41 51.41 0 01-5.81-3.62 13.54 13.54 0 01-5-6.37 11 11 0 01.24-8.56 11 11 0 017.4-5.89 13.11 13.11 0 016.57.54 15.24 15.24 0 018.11 5.56 9.94 9.94 0 011.14 9.25 56.75 56.75 0 01-3 5.47c-1 1.85-1.53 4-.66 5.69.35.68 1.36 2.06 1.27 2.85-.15.97-4.72 2.43-5.58 2.42zM26.35 34.31s2.09 5.75 2 6.46c-.09.53-2.93 5.18.12 6.43s4-2.41 4.69-3.67c1.33.87 4.58 4.22 6.24.22s-5.25-5.27-5.47-5.43-2.68-5.53-3.61-5.88-3.97 1.87-3.97 1.87z"/></g></svg>