<svg xmlns="http://www.w3.org/2000/svg" width="48" height="48" viewBox="0 0 48 48"><path d="M21.73 28.12c4.52.82 8.39 3.86 11.54 9a19.13 19.13 0 004.24-2.83C33 28 27.84 24.42 22.11 23.78c-7.52-.84-14 3.6-16.38 5.5.82.85 1.67 1.63 2.45 2.35 1.88-1.31 7.36-4.63 13.55-3.51z" fill="#fff" opacity=".6"/><path d="M23.06 17.24c7.12.79 13.56 4.68 19.17 11.55a33.22 33.22 0 002.85-5.39C37.24 13.77 27.44 10 15.91 12.32a43.17 43.17 0 00-13.26 5.19A10.27 10.27 0 002 19.27a8.5 8.5 0 000 4.11c3.15-2.2 11.41-7.22 21.06-6.14z" fill="#fff" opacity=".6"/><path d="M45.5 22.32c.31-.81.53-1.52.67-2C47 17 36.93 5 25.4 5.84c-9.58.71-18.22 4.64-21.83 10 8.05-4.31 26.95-11.43 41.93 6.48zM21.56 29.11c-5.59-1-10.72 1.94-12.64 3.23a16 16 0 011.3 1.39 7.71 7.71 0 01.7 1c1.95-1.1 6.49-3.2 10.81-1.81 2.73.88 4.87 3 6.37 6.34l3.95-1.56.31-.15c-2.98-4.83-6.61-7.68-10.8-8.44z" fill="#fff" opacity=".6"/><path d="M23 18.23c-9.66-1.08-17.9 4.16-20.63 6.15A13.6 13.6 0 005 28.53c2.44-2 9.15-6.63 17.17-5.74 6 .66 11.39 4.3 16 10.82a26 26 0 003.39-4C36.16 22.84 29.88 19 23 18.23zM11.86 38.44a5.1 5.1 0 001.2 2.06c2.06 2.35 5.55 2 10.18.51-3.6-5.01-8.9-3.64-11.38-2.57z" fill="#fff" opacity=".6"/><path d="M24.23 40.69c.94-.32 1.91-.69 2.93-1.08-1.37-3-3.3-5-5.74-5.74-3.94-1.28-8.27.75-10.06 1.76a6.57 6.57 0 01.33 1.82c2.87-1.14 8.68-2.45 12.54 3.24z" fill="#fff" opacity=".6"/></svg>