<svg xmlns="http://www.w3.org/2000/svg" width="48" height="48" viewBox="0 0 48 48"><g opacity=".6" fill="#fff"><path d="M33.75 19.57S29.16 27.1 26 30.47 14.61 42.24 14.71 44.18s4.8 2 7-.08 12.18-20.92 12.04-24.53zM19.85 7.09c-.35 0-7.29 16.5-8.17 19.46s-1 9.4-1 9.4-2.88 5.71 2.5 8.29c0 0-.79-10.58.08-13.47s7.36-17.16 8.81-19S24.85 8 24.66 7.51s-4.36 2.87-4.78 3.84c0 0 1.29-4.18-.03-4.26z"/><path d="M12.41 43.17S11.73 45.82 12 46s2.85 2.15 3.12 1.61a24.81 24.81 0 00.77-3.09s-2.75-.09-2.85-2.08M34.78 17.64a8.6 8.6 0 001-3.32 42.41 42.41 0 01.64-4.32l1.72-2.19s-.71-.4-1.07 0a18 18 0 00-1.15 1.83s.33-6.86-.12-7-1.93 3.78-2.22 4.9a9.51 9.51 0 00-.2 2.53l-.62.19s.44-3.64.36-4.12S31.06 8 31.06 8a10.43 10.43 0 01.68 6C31 17 30 22.67 30 22.67a19.84 19.84 0 002.74-4.25c.7-1.88 2.04-.78 2.04-.78zM29.57 7.13c.36-.29 0-6.68-.52-6.83s-.59 4.37-.81 4.76S25.75 7 26 7.42c.13.2 1.34-.61 2.12-.74s1.28.59 1.45.45zM19.907 30.83l.571-1.332 2.096.897-.57 1.333zM22.262 17.544l.571-1.333 2.17.93-.571 1.332zM19.68 23.563l.582-1.36 2.17.928-.583 1.361zM18.837 25.542l.571-1.332 2.17.928-.571 1.333zM20.547 21.537l.571-1.333 2.17.929-.571 1.333zM21.405 19.57l.586-1.37 2.17.93-.587 1.37zM23.371 22.75l.571-1.334 2.096.898-.57 1.333zM24.224 20.77l.586-1.37 2.096.898-.586 1.37zM24.82 11.568l.583-1.36 2.17.929-.583 1.36zM20.58 34.28l-1.81-.78-.57 1.34 1.32.56c.35-.4.7-.75 1.06-1.12zM21.665 26.746l.571-1.333 2.096.897-.57 1.333zM22.437 24.674l.577-1.362 2.098.89-.577 1.361zM25.077 18.753l.571-1.333 2.096.897-.57 1.333zM26.793 14.756l.571-1.332 2.096.897-.57 1.333zM25.93 16.773l.586-1.37 2.096.898-.586 1.37zM23.979 13.548l.57-1.333 2.17.929-.571 1.333zM27.636 12.777l.582-1.36 2.096.897-.582 1.36zM14.14 38.6a14.69 14.69 0 00.21 3.4l1.21-2.82zM19.63 31.49l-.58 1.36 2.06.89.07-.08.54-1.27zM24.17 11.29l.29-.67c-.16.19-.31.39-.47.59zM15.382 33.628l.571-1.333 2.17.929-.571 1.332zM17.942 27.653l.622-1.452 2.17.929-.623 1.452zM23.115 15.565l.586-1.37 2.17.93-.587 1.369zM17.088 29.631l.571-1.333 2.17.93-.571 1.332zM14.518 35.645l.583-1.361 2.17.929-.583 1.36zM16.224 31.648l.587-1.37 2.17.93-.587 1.369zM20.757 28.862l.622-1.452 2.096.897-.622 1.453zM27 27.48l-2-.88-.57 1.33 1.8.77.61-.58.16-.64zM27.55 20.58L27 22l1.69.72c.15-.46.29-.94.42-1.43zM26.69 22.6l-.57 1.33 1.88.81.45-1.39zM17.92 35.49l-.59 1.36.62.26L19 36zM24.12 28.58L23.5 30l.91.39 1.23-1.19zM23.22 30.68L22.65 32l.11.05c.38-.39.75-.75 1.11-1.1zM25.84 24.58l-.59 1.36 2 .88c.14-.4.31-.88.49-1.41zM28.51 10.76l2.09.9a4.11 4.11 0 00-1.18-3zM25.83 9.21l-.14.34 2.17.93.93-2.19a1.89 1.89 0 00-.36-.1 3.33 3.33 0 00-2.6 1.02zM30.39 14l.15.07v-.52zM29.26 16.58L28.68 18l1.11.48c.12-.5.22-1 .32-1.48zM30.11 14.6l-.57 1.33.7.3c.09-.5.16-1 .22-1.48zM28.4 18.6l-.57 1.33 1.43.62c.13-.47.25-.95.37-1.42zM20.75 19.29l.58-1.37-1.08-.46-.66 1.33zM19.9 21.27l.57-1.33-1.18-.51c-.21.44-.41.88-.61 1.31zM19 23.28l.58-1.36-1.23-.53c-.21.46-.41.91-.6 1.36zM23.32 13.27l.57-1.33-.33-.14c-.27.38-.55.79-.82 1.22zM21.61 17.27l.57-1.33-.93-.4c-.23.42-.45.85-.68 1.28zM18.19 25.27l.57-1.34-1.25-.53c-.19.46-.38.9-.55 1.34zM22.46 15.29l.59-1.37-.69-.29c-.26.42-.51.85-.76 1.29zM15.83 38.56l.57-1.34-2.17-.93-.07.17v1.37zM14.23 33.91v.64l.24-.55zM14.25 33.15l.48.2.57-1.35-1-.41v.07l-.05 1.49zM17.05 37.5l-.56 1.32c.3-.36.62-.75 1-1.15zM16.44 29.35L17 28l-1.17-.5c-.18.49-.36.94-.51 1.36zM17.29 27.37l.62-1.45-1.22-.53c-.21.51-.41 1-.59 1.47zM15.57 31.37l.59-1.37-1.08-.46-.51 1.4z"/></g></svg>