<svg xmlns="http://www.w3.org/2000/svg" width="48" height="48" viewBox="0 0 48 48"><g opacity=".6" fill="#fff"><path d="M38.46.18S23.67.18 17.93 6.8c0 0-9.93 1.77-9.93 2.87s.34 5.19 2.1 5.85c0 0-3.8 16.21 2.16 20.52s3-5.29 3.25-8.27 2.87-.6 2.87-.6a5.18 5.18 0 011.77-6.46 52.73 52.73 0 017.94-4.41s1.44 2.77 2.1 2.21S32.06 14 32.06 14 39.89 5.37 40 3.16 36.47 5.37 38.46.18z"/><path d="M14.89 38.86s7.62 7.3 8 8.74 1-4.44.51-6.9 1-2.69 1.68-4.93.94-2.38.67-3.05-8-.52-8 .51.95 7.15-2.86 5.63z"/></g></svg>