<svg xmlns="http://www.w3.org/2000/svg" width="48" height="48" viewBox="0 0 48 48"><path d="M39.9 22.11a4.09 4.09 0 00-2-.92 6.76 6.76 0 00.35-.86c0-.18-.18-.32-.53-.41 1.84-4.08 5.86-11.77 6.65-13.1 1-1.74-1.91-1.12-3-.9-.76.15-4.14 9.08-5.89 13.81h-.05c-.33 0-.63.3-.89.7-.85-.16-1.78-.31-2.77-.47a2.67 2.67 0 00.16-.43c.05-.2-.22-.34-.62-.43 1.91-3.65 6.32-10.9 7.26-12.17 1.2-1.62-1.79-1.31-2.84-1.2-.8.08-4.59 9-6.35 13.2h-.18a1.1 1.1 0 00-.79.55l-2.7-.32c.05-.14.1-.26.12-.34.05-.23-.29-.38-.77-.47 1.73-3.1 6.65-10.27 7.64-11.61 1.2-1.63-1.79-1.31-2.84-1.21-.84.09-5 9.07-6.67 12.68h-.13a1.13 1.13 0 00-.82.6l-2.79-.23c.05-.22-.26-.37-.72-.46 1.68-3 6.69-10.36 7.7-11.71 1.2-1.63-1.79-1.32-2.84-1.21-.84.08-5.09 9.22-6.71 12.78h-.2a1 1 0 00-.7.43l-2.15-.09a5.71 5.71 0 00.3-.75c0-.18-.15-.3-.44-.39 2-3.4 6.24-9.55 7.15-10.77C22.07 4.73 19.08 5 18 5.15c-.78.08-4.41 7.75-6.26 11.77h-.39c-.48 0-.9.64-1.22 1.31a5.35 5.35 0 00-2.67.61c-1.43.66-5.79 11.36-4.1 15.05s27.08 9.75 30.77 9S44.63 34.86 45 33s-3.67-8.64-5.1-10.89zm-4.44 18.11c-1.64.41 2.13-17 3.48-16.88 2.05.2 4.65 7.93 4.65 9.29s-6.49 7.18-8.13 7.59z" fill="#fff" opacity=".6"/></svg>