<svg xmlns="http://www.w3.org/2000/svg" width="48" height="48" viewBox="0 0 48 48"><g opacity=".6"><path d="M28.07 27.09c.13-1.08.23-2.17.33-3.24a16.19 16.19 0 01-8.92-.85c.13 1.62.29 3.28.49 4.91a17.32 17.32 0 008.1-.82zM21.33 36.07c.75 3.18 1.65 5.36 2.64 5.36s2-2.36 2.73-5.76a19.91 19.91 0 01-5.37.4zM24.14 34.28a10.32 10.32 0 003-.6c.27-1.46.52-3.05.73-4.68a19.37 19.37 0 01-3.79.81 17.69 17.69 0 01-3.85 0c.22 1.6.48 3.14.75 4.54a28.28 28.28 0 003.16-.07zM24.37 22.33a10.7 10.7 0 004.17-.33c4-4.25-3.9-19-4.57-19s-8.32 14.51-4.63 18.14a19.56 19.56 0 005.03 1.19z" fill="#fff"/><path d="M21.31 40.88s-5 2.18-3.13 4.15 3.41-.47 3.41-.47-.05 3 2.68 2.94 2-2.85 2-2.85 1.92 2.1 3.49.51c1.78-1.81-2.92-4.28-2.92-4.28s-2.84 5.49-5.53 0zM33.6 17.23c-1.49.05-3.88 2.43-.66 4.25s10-1.25 9.93-7.16S37 4.11 36.35 4.63s1.53 7 1.55 8.75-4.3 3.85-4.3 3.85z" fill="#fff"/><path d="M34.38 7c-1.16.89-2.79 7.11-.59 7.63s3.55-.72 2.45-3.45-.06-5.54-1.86-4.18zM29.66 24.29s3.72-1.9 3.47-4.4 2.62 0 2.62 0-1.18 5.77-6.09 6.9zM14.4 17.23c1.49.05 3.88 2.43.66 4.25S5 20.23 5.13 14.32s5.92-10.21 6.52-9.69-1.53 7-1.55 8.75 4.3 3.85 4.3 3.85z" fill="#fff"/><path d="M13.59 7.35c1.18.83 3 6.89.86 7.49s-3.52-.58-2.53-3.31-.15-5.48 1.67-4.18zM18.34 24.29s-3.72-1.9-3.47-4.4-2.62 0-2.62 0 1.47 6.06 6.38 7.19z" fill="#fff"/><path d="M19.29 1s-.66 6.61 1.26 8.38M27.91 1s1 6.94-1 9" fill="none" stroke="#fff" stroke-linecap="round" stroke-miterlimit="10"/></g></svg>