<svg xmlns="http://www.w3.org/2000/svg" width="48" height="48" viewBox="0 0 48 48"><path d="M31.08 29.76c3.07 1.29 6.93.56 9.49-4.78S37.35 8.82 24.46 8.82c-4.6 0-11.62 1.59-15.79 7.43S8.52 27.52 10.36 29s6.08-.52 6.08-.52 0 10.1.66 10.55 10.9-.03 12.63-.5 1.35-8.77 1.35-8.77zm-20.89-3c-.44-1.39-1.62-4.61 1.46-6.18s4.23-2.27 5.5-1.57-1.59 2.65-3.06 3.63-2.72 2.24-2 4-1.47 1.53-1.9.15zm24.43-2.56c-.82-1.44-4.82-1.2-5.17-3.53s3.8-.87 3.8-.87 3.58 1.35 4.21 4c.87 3.71-2 4.54-2.8 4.31s.79-2.44-.04-3.88z" fill="#fff" opacity=".6"/></svg>