<svg xmlns="http://www.w3.org/2000/svg" width="48" height="48" viewBox="0 0 48 48"><g opacity=".6" fill="#fff"><path d="M22.93 10.59a14.16 14.16 0 003.55-8L28.3 1.5v1.74l1.29-.37a11.31 11.31 0 00-2 9.7M21.61 41.9l-1.38 3.25a.37.37 0 00.65.37 7.74 7.74 0 01.55-.73 3.57 3.57 0 01.27-.28l.14-.12h.06c.09 0 .09-.05 0 0l-.26-.11c-.05 0 0-.1 0 0a.81.81 0 000 .22v.44c0 .15 0 .54.08.81a1.16 1.16 0 00.22.7.45.45 0 00.67-.06 6.28 6.28 0 00.45-.69c.08-.11.15-.24.24-.35l.07-.09h-.08s.16.22.17.26a1.12 1.12 0 01.1.31 7.58 7.58 0 01.15.83c.06.38.64.34.73 0l.22-.89.1-.39c0-.09 0-.3.1-.35l-.26.11c-.1 0-.11 0 0 0l.12.13.25.27c.16.19.32.38.46.58a.39.39 0 00.52.14.37.37 0 00.13-.51 9.86 9.86 0 00-.7-.87c-.22-.24-.49-.62-.86-.51s-.41.57-.49.87l-.3 1.18h.73c-.09-.62-.19-1.67-.91-1.91s-1.07 1-1.53 1.38l.27-.11.27.11v-.52-.67c0-.22.09-.95-.37-1.09s-.75.29-1 .53a8.68 8.68 0 00-.79 1l.65.37 1.38-3.24a.39.39 0 00-.14-.51.38.38 0 00-.51.13z"/><path d="M39.91 19.59c-3.19-3.87-8.64-5.21-12.42-8.36-.87-1.19.14-3.05-.68-4.27l-.95.26c-4.65 7.28-14.55 5.15-17.8 15.69C.17 38.21 21 51.76 33.77 41.55c7.05-4.46 10.14-14.55 6.14-21.96zM13.27 39.31a.4.4 0 01-.22.08.38.38 0 01-.3-.15c-7.25-9.79-1-20.58-1-20.69a.36.36 0 01.51-.13.37.37 0 01.14.51c-.07.1-6 10.48.92 19.86a.37.37 0 01-.05.52zm5.18 2.39a.43.43 0 01-.24.08.37.37 0 01-.29-.14c-9.76-11.91-.75-25.64-.66-25.75a.37.37 0 11.62.42c-.09.13-8.78 13.38.62 24.86a.38.38 0 01-.05.53zm4.83-28c-.06.17-6.47 17.55-2 28.24a.37.37 0 01-.2.49.4.4 0 01-.15 0 .38.38 0 01-.34-.23c-4.59-11 1.72-28.07 2-28.79a.37.37 0 01.48-.22.36.36 0 01.21.52zm1.8 27.88a.37.37 0 01-.32.19.41.41 0 01-.19-.05.37.37 0 01-.14-.51c3.8-6.62 1.48-27.39 1.46-27.6a.37.37 0 01.33-.42.38.38 0 01.41.33c.1.88 2.37 21.24-1.55 28.07zm3.75.74a.4.4 0 01-.29.14.41.41 0 01-.24-.08.38.38 0 01-.06-.53c7.84-9.73 2-26.1 2-26.27a.38.38 0 01.22-.48.37.37 0 01.48.23c.06.18 5.99 16.94-2.11 27zm6.83-4.9a.37.37 0 01-.33.19.36.36 0 01-.32-.56c5.61-9.88 1.06-17.16 1-17.24a.37.37 0 11.63-.4c.07.08 4.86 7.75-.98 18.02z"/></g></svg>