<svg xmlns="http://www.w3.org/2000/svg" width="48" height="48" viewBox="0 0 48 48"><path d="M38.7 11.92c-2.08-6.8-5-10-8.74-9 0 0-.14-2.77-3.34-2.36S18.85 4 16.77 6 5.94 24.69 9.69 29.55c0 0 3.89 12.77 8.61 14.43s10.27 5.28 12.63 2.5 0-3.88 0-3.88 2-.7 1.05-3.2c0 0 2.69-8.18 4.08-11.1s0-4.3 0-4.3 4.72-5.28 2.64-12.08zM21 32.59a.5.5 0 111 .41 1.94 1.94 0 000 1.7c.39.5 1.33.66 2.75.46 1.08-.15 1.77-.53 2-1.14.5-1.15-.51-3-.94-3.6a.5.5 0 01.12-.7.49.49 0 01.69.12c.08.11 1.87 2.68 1.05 4.58a3.27 3.27 0 01-2.81 1.73 7.55 7.55 0 01-1.2.1 3 3 0 01-2.49-1 3 3 0 01-.17-2.66zm8 12.9a1.2 1.2 0 01-.87 1 1.09 1.09 0 01-.26 0c-1.53 0-4-2.72-4.73-3.6a.49.49 0 01.05-.7.51.51 0 01.71 0c1.44 1.69 3.4 3.39 4 3.25.06 0 .11-.17.12-.24a46.58 46.58 0 00.69-6.9.53.53 0 01.51-.48.5.5 0 01.49.51 48.88 48.88 0 01-.65 7.16zm3.53-15.73a.5.5 0 01-.55.45.5.5 0 01-.44-.55s.33-3.56-2-5.75c-1.76-1.66-4.57-2.19-8.36-1.57-2.48.4-4.16 1.49-5 3.25-2.5 5.16 2.64 14.48 2.69 14.57a.5.5 0 01-.19.68.54.54 0 01-.25.06.5.5 0 01-.43-.25c-.23-.4-5.45-9.86-2.72-15.5 1-2.07 2.93-3.35 5.75-3.8 4.12-.67 7.22-.05 9.21 1.84a8.47 8.47 0 012.35 6.57zm1.57-20a24.49 24.49 0 01-2.45-2.94c-2.65-3.81-6.39-2.48-10.73-1S13.19 17 12.21 23.25s2.37 12.8 2.41 12.86a.5.5 0 01-.21.68.46.46 0 01-.23.06.5.5 0 01-.44-.27c-.15-.27-3.58-6.76-2.52-13.49C12.17 17 15.57 6.77 20.65 5c4.52-1.6 8.8-3.12 11.88 1.32a24 24 0 002.36 2.83c1.79 1.9 3.2 3.4 2.34 7.18a.5.5 0 11-1-.22c.77-3.29-.3-4.43-2.07-6.31z" fill="#fff" opacity=".6"/></svg>