<svg xmlns="http://www.w3.org/2000/svg" width="48" height="48" viewBox="0 0 48 48"><g opacity=".6"><rect x=".5" y="32.35" width="47" height="2.7" rx="1.35" fill="#fff"/><path fill="#fff" d="M42.43 39.02H5.58l-2-2.85h40.85l-2 2.85z"/><path d="M2.67 30.31s10.84-11.23 22 0M7 30.31s7.55-5.5 13.09 0M12.79 30.31h2.44M22.07 25.32S34.89 18 44 30.31M24.67 27.24s9.38-4 14.64 3.07M26.43 29.54s5.26-1.66 8.1.77M8.4 23.41s8.37-12 21-2.05M13 23.41s4.1-5.77 11.63-1.63M17.32 23.41a4 4 0 013.67 0M23.32 15.09s16.07-9.71 18.19 8.48M26.59 16.91s10.12-4.75 10.91 4.94M30.15 18.89s3.44-1.55 4 2.42M10.6 17.56s2.73-13.16 15.86-6.88M14.8 16s1.91-5.75 7.71-3.19M18.53 15.14a1.28 1.28 0 011.88-.41" fill="none" stroke="#fff" stroke-linecap="round" stroke-miterlimit="10"/></g></svg>