<svg xmlns="http://www.w3.org/2000/svg" width="48" height="48" viewBox="0 0 48 48"><path d="M35.93 13C34 9.61 28-3.06 17.8 4.19a11.48 11.48 0 00-2.51 2.4 48.39 48.39 0 00-3.19 4.95 13.47 13.47 0 00-1.76 3.94 18.43 18.43 0 00-.06 4c.08 3.92-1.06 7.84-.67 11.75.35 3.43 1.86 6.68 3.42 9.86a6 6 0 001.05 1.65 6.7 6.7 0 002 1.25 19.76 19.76 0 007.3 2 10.06 10.06 0 007.06-2.13 11.34 11.34 0 002.61-4.09c1.42-3.28 2.63-6.63 3.77-10a29 29 0 001.55-6A18 18 0 0035.93 13zm-20 22.45a1.66 1.66 0 010-3.32 1.66 1.66 0 010 3.28zm3.15-24.36a1.66 1.66 0 010-3.32 1.66 1.66 0 010 3.28zm3.35 28.77a1.67 1.67 0 010-3.33 1.67 1.67 0 010 3.29zm4.41-14.91a1.66 1.66 0 010-3.32 1.66 1.66 0 010 3.28zm3.57-5.25a1.66 1.66 0 010-3.32 1.66 1.66 0 010 3.28zm2.31 12.18a1.66 1.66 0 010-3.32 1.66 1.66 0 010 3.28z" fill="#fff" opacity=".6"/></svg>