<svg xmlns="http://www.w3.org/2000/svg" width="48" height="48" viewBox="0 0 48 48"><g opacity=".6"><path d="M34.36 10.25c-6.3-2.72-13.44-1.69-18.77-1.42C7.41 9.24 6.94 2.4 5 4s10 13.41 23.72 15.88a13.72 13.72 0 012.19.73c3.09-2.25 3.52-10.21 3.45-10.36zM35.91 26.81c4 .58 7-2.15 9.12-5.3a18.6 18.6 0 00-1.62-3 24 24 0 00-7.08-7.23 12 12 0 01-.74 4.72 14.59 14.59 0 01-3.39 5.71 14.51 14.51 0 013.71 5.1zM32.58 38.91c-.25-.4-2-.4-2.2-1.14s.95-2.14.79-2.45-12 3.11-11.72 4.61c.43 2 4.56 1 4.56 1s-2.4 2.33-.87 3.32c1.01.62 9.69-4.95 9.44-5.34z" fill="#fff"/><path d="M45.69 23.45c-2.49 3.65-5.4 5-9.24 4.9a9.76 9.76 0 01.21 3.2c-.92 3.29-7.7 5.06-3.4 6.11 3.64.89 14.4-4.78 12.43-14.21z" fill="#fff"/><path d="M13.71 11.62s-8.18 1.77-11.64-1.13M17.62 13.68s-6.41.21-10.15.53-2.75 5.21-2.75 5.21M29.93 19.42S26.09 22 26 24M35.1 23.45s-4.09-.61-5.17 1.93M37.28 25.74a5.8 5.8 0 00-6.63 1.82M37.87 32.64a5.53 5.53 0 00-4.66-2M35.54 34.82s-1.33-2.18-3.34-2.18" fill="none" stroke="#fff" stroke-linecap="round" stroke-miterlimit="10"/></g></svg>