<svg xmlns="http://www.w3.org/2000/svg" width="48" height="48" viewBox="0 0 48 48"><path d="M12.81 15.15s-5-.37-7.38 2-1.88 3.31-3.16 4.37-2.34 2.56-1.43 3.33c0 0-.53 2.43 1.73 2.35 0 0 1 2.49 4.09 1.43a11.09 11.09 0 012.69 5.65c.3 3.09 6.62 10.17 8.21 10.32 0 0-3.62-.68-2.72 1.65h30c3.24 0 3.47-10.16 1.13-14.38s-7.3-11.45-13.47-11-11 .37-13.11 1.28c0 0 .83-3.32-.45-4.75a10.4 10.4 0 002.86-4.82c.45-2.56 1.81-10.31.3-10.46s-9.36 3.32-9.29 13.03z" fill="#fff" opacity=".6"/><path d="M17.12 3.11s-.46-1.4-1.12-1.36-5.89 6.6-4.36 13H12s0-5.08 1.67-7.51a34.88 34.88 0 013.45-4.13z" fill="#fff" opacity=".6"/></svg>