<svg xmlns="http://www.w3.org/2000/svg" width="48" height="48" viewBox="0 0 48 48"><g opacity=".6" fill="#fff"><path d="M20.4 43.93a5.81 5.81 0 00-.79.92 1.46 1.46 0 000 1.51 1.78 1.78 0 00.63.62 1.84 1.84 0 00.82.23 2.52 2.52 0 00.82-.14c.52-.19 1-.45 1.51-.68l-.75.21h.09l-.73-.21-.54-.54c.07.11.05 0-.06-.16a.88.88 0 00.05.15 1.92 1.92 0 00.46.79 1.75 1.75 0 001.7.46 1.71 1.71 0 00.94-.73c.07-.14.13-.29.19-.43-.47.84-1.05 1.08-1.74.73a.74.74 0 01-.32-.29l.09.15a2.48 2.48 0 00.38.52 1.82 1.82 0 001.75.55 2 2 0 001.17-1l.09-.15c.09-.14.06-.1-.09.11a1.1 1.1 0 01-1 .24c-.21-.09-.24-.1-.09 0l.77.38a1.5 1.5 0 001.52-2.59 3.94 3.94 0 00-2.17-.7 2.06 2.06 0 00-1.18.62 3.77 3.77 0 00-.37.52l-.09.16c.15-.18.18-.21.07-.11l.67-.39h-.07.8a1 1 0 01.55.45l-.11-.13a1.59 1.59 0 00-.13-.22 2.14 2.14 0 00-1.13-.9 1.91 1.91 0 00-1.41.15 1.5 1.5 0 00-.4.3 2.42 2.42 0 00-.27.36c-.24.52-.2.48.13-.12l.66-.39h-.06.8a1.2 1.2 0 01.76.76v-.16a2 2 0 00-.45-.77 1.69 1.69 0 00-2-.25 2.88 2.88 0 01-.68.34c.2-.08.23-.1.07 0l-.19.07-.16.06a1.11 1.11 0 01.83.11l.54.54v1.51c.1-.12.07-.1-.06.09a.53.53 0 01.12-.14 3.19 3.19 0 01.26-.26 1.51 1.51 0 000-2.12 1.53 1.53 0 00-2.12 0z"/><path d="M34.93 26.9a21.84 21.84 0 00-1.31-3.74 22.85 22.85 0 00-2.92-5.34c-1.29-1.61-3-2.91-4-4.68-.17-.28-.31-.57-.45-.86C25.21 9.5 27.45 7.6 27.5 6s-1.56-1.42-1.65-2.51A4.58 4.58 0 0023.46.82c-.41 0-.54 0-.54.6s-.23.32-.69.5.18.64.92 1.61.09 1.64-.92 3.7c-.53 2.09-1.06 3.63-1.06 3.63-.2.5-.41 1-.63 1.49-1.38 3-3.22 5.7-4.7 8.62a25.64 25.64 0 00-3.12 12.19 15.12 15.12 0 005.08 11.23c1.24 1 3.6 1.64 6.57 1.7s6.52-.71 8-3.08a21.16 21.16 0 002.49-7.92 21.5 21.5 0 00.07-8.19zM18.39 42.57c-5.77-7.31-3-18.09 1.55-25.34.25-.39.88 0 .63.37-4.4 6.93-7.22 17.4-1.67 24.46.28.36-.23.87-.51.51zm4.33.81c.21.42-.42.78-.63.37-2.75-5.38-3-11.6-2.25-17.5a43.25 43.25 0 012.21-9.38c.17-.43.87-.25.7.19a43.31 43.31 0 00-2.12 8.68C19.76 31.65 20 38 22.72 43.38zm3.35-.16c-.09.45-.79.26-.7-.2a54.23 54.23 0 00.22-16.09 80.39 80.39 0 00-1.3-8.44c-.09-.45.6-.64.7-.19a83.6 83.6 0 011.32 8.63 54.9 54.9 0 01-.24 16.29zm3.93-.81c-.17.43-.87.24-.7-.19a26 26 0 00.6-17.89 22.81 22.81 0 00-3.68-7.11c-.29-.36.22-.87.52-.51a23.82 23.82 0 013.86 7.43 26.58 26.58 0 01-.6 18.27z"/></g></svg>