<svg xmlns="http://www.w3.org/2000/svg" width="48" height="48" viewBox="0 0 48 48"><g opacity=".6" fill="#fff"><path d="M11.82 15.56a15.85 15.85 0 00-.31 3.11c.07 5 .65 11.31 4.35 15 2.83 2.26 1.59-3.53 3.53-10.11-.39-.17-5.59-3.42-7.57-8zM21.26 3.35a19.12 19.12 0 00-8.79 9.9c.94 3.56 6.35 8.07 7.44 8.7a16.29 16.29 0 017.16-8.88c-3.07-3-5.5-6.62-5.81-9.72zM28.92.71a23 23 0 00-6.36 2c.87 4.51 4.84 8.41 6 9.51a20.14 20.14 0 015.29-1.58c5.94-1.16.8-11.74-4.93-9.93z"/><path d="M19.32 34c-.58.22-1.08 2.54-2.08 2.54s-2.52-1.83-3-1.7-.46 12.7 1.58 12.7c2.74 0 3.43-3.77 3.43-3.77s2.4 2.4 4.12.68c1.16-1.17-3.47-10.71-4.05-10.45z"/></g></svg>