<?xml version="1.0" encoding="utf-8"?>
<!-- Generator: Adobe Illustrator 19.1.0, SVG Export Plug-In . SVG Version: 6.00 Build 0)  -->
<svg version="1.1" id="Layer_1" xmlns="http://www.w3.org/2000/svg" xmlns:xlink="http://www.w3.org/1999/xlink" x="0px" y="0px"
	 width="37.3px" height="57.3px" viewBox="0 0 37.3 57.3" style="enable-background:new 0 0 37.3 57.3;" xml:space="preserve">
<style type="text/css">
	.st0{opacity:0.4;}
	.st1{fill:#FFFFFF;}
</style>
<g class="st0">
	<g>
		<path class="st1" d="M34.8,12.8H21.2h-2.4h-0.3h-3.1H2.6C1.2,12.8,0,14,0,15.4C0,16.8,1.2,18,2.6,18h8.3v7v7.4v22
			c0,1.6,1.3,2.9,2.9,2.9c1.6,0,2.9-1.3,2.9-2.9V36.9h3.2v17.6c0,1.6,1.3,2.9,2.9,2.9c1.6,0,2.9-1.3,2.9-2.9v-22V25v-7h9.1
			c1.4,0,2.6-1.2,2.6-2.6C37.3,14,36.2,12.8,34.8,12.8z"/>
	</g>
	<g>
		<circle class="st1" cx="18.7" cy="5.9" r="5.9"/>
	</g>
</g>
</svg>
