<svg version="1.1" id="Layer_1" xmlns="http://www.w3.org/2000/svg" x="0" y="0" width="37.3" height="57.3" xml:space="preserve"><style>.st1{fill:#fff}</style><g opacity=".4"><path class="st1" d="M34.8 12.8H2.6C1.2 12.8 0 14 0 15.4 0 16.8 1.2 18 2.6 18h8.3l-5 24.6c0 .5.5 1 1 1h4v10.9c0 1.6 1.3 2.9 2.9 2.9 1.6 0 2.9-1.3 2.9-2.9v-11h3.2v10.9c0 1.6 1.3 2.9 2.9 2.9 1.6 0 2.9-1.3 2.9-2.9V43.5h4.1c.5 0 1-.5 1-1l-5-24.6h9.1c1.4 0 2.6-1.2 2.6-2.6-.2-1.3-1.3-2.5-2.7-2.5z"/><circle class="st1" cx="18.7" cy="5.9" r="5.9"/></g></svg>